# xmcd
#
# Track frame offsets:
#	150
#	17100
#	36675
#	49854
#	70904
#	89262
#	105532
#	122309
#	140708
#	158856
#	177197
#	195556
#	223491
#
# Disc length: 3279 seconds
# Revision: 0
# Processed by: cddbd v1.5.2PL0 Copyright (c) Steve Scherf et al.
# Submitted via: dBpowerAMP V12.0
#
DISCID=bf0ccd0d
DTITLE=Johnny and The Motones - Shake It
DYEAR=2013
DGENRE=Blues
TTITLE0=Swimming Hole
TTITLE1=I Gotta Run
TTITLE2=Shake It
TTITLE3=Row Me Down The Muddy Mississippi
TTITLE4=Walkin' Down The Road
TTITLE5=She's Still Here
TTITLE6=Get On A Harley
TTITLE7=Woke Up In The Morning
TTITLE8=Set The World On Fire
TTITLE9=Wonderful
TTITLE10=Magic Love
TTITLE11=Call My Name
TTITLE12=Booze and Blues
EXTD=
EXTT0=
EXTT1=
EXTT2=
EXTT3=
EXTT4=
EXTT5=
EXTT6=
EXTT7=
EXTT8=
EXTT9=
EXTT10=
EXTT11=
EXTT12=
PLAYORDER=
